@startuml

interface Callback {
}

interface org.springframework.cglib.proxy.MethodInterceptor {
Object intercept(Object var1, Method var2, Object[] var3, MethodProxy var4) throws Throwable;
}

class DynamicAdvisedInterceptor {
Object intercept(Object proxy, Method method, Object[] args, MethodProxy methodProxy)
}

Callback <|-- org.springframework.cglib.proxy.MethodInterceptor
org.springframework.cglib.proxy.MethodInterceptor <|.. DynamicAdvisedInterceptor


interface Advice {
}

interface BeforeAdvice {
}

interface AfterAdvice {
}

interface AfterReturningAdvice {
}


interface Interceptor {
}

interface org.aopalliance.intercept.MethodInterceptor {
Object invoke(MethodInvocation invocation) throws Throwable;
}


abstract class AbstractAspectJAdvice {
Object invokeAdviceMethod(
			@Nullable JoinPointMatch jpMatch, @Nullable Object returnValue, @Nullable Throwable ex)
			throws Throwable;
}

class AspectJAfterThrowingAdvice {
Object invoke(MethodInvocation invocation) throws Throwable;
}

class AspectJAfterAdvice {
Object invoke(MethodInvocation invocation) throws Throwable;
}

class AspectJAroundAdvice {
Object invoke(MethodInvocation invocation) throws Throwable;
}

class MethodBeforeAdviceInterceptor {
Object invoke(MethodInvocation invocation) throws Throwable;
}

class AfterReturningAdviceInterceptor {
Object invoke(MethodInvocation invocation) throws Throwable;
}


Advice <|-- Interceptor
Advice <|.. AbstractAspectJAdvice
Advice <|-- BeforeAdvice
Advice <|-- AfterAdvice
Advice <|-- AfterReturningAdvice
Interceptor <|-- org.aopalliance.intercept.MethodInterceptor
org.aopalliance.intercept.MethodInterceptor <|.. AspectJAfterThrowingAdvice
org.aopalliance.intercept.MethodInterceptor <|.. AspectJAfterAdvice
org.aopalliance.intercept.MethodInterceptor <|.. AspectJAroundAdvice
org.aopalliance.intercept.MethodInterceptor <|.. MethodBeforeAdviceInterceptor
org.aopalliance.intercept.MethodInterceptor <|.. AfterReturningAdviceInterceptor
AbstractAspectJAdvice <|-- AspectJAfterThrowingAdvice
AbstractAspectJAdvice <|-- AspectJAfterAdvice
AbstractAspectJAdvice <|.. AspectJAroundAdvice
BeforeAdvice <|.. MethodBeforeAdviceInterceptor
AfterAdvice <|.. AfterReturningAdviceInterceptor

interface BeanPostProcessor {
default Object postProcessBeforeInitialization(Object bean, String beanName) throws BeansException
default Object postProcessAfterInitialization(Object bean, String beanName) throws BeansException
}


interface InstantiationAwareBeanPostProcessor {
default Object postProcessBeforeInstantiation(Class<?> beanClass, String beanName) throws BeansException
default boolean postProcessAfterInstantiation(Object bean, String beanName) throws BeansException
}

class ImportAwareBeanPostProcessor {
}

interface AopProxyFactory {
AopProxy createAopProxy
}

interface BeanFactoryPostProcessor {
void postProcessBeanFactory(ConfigurableListableBeanFactory beanFactory) throws BeansException
}
interface BeanDefinitionRegistryPostProcessor {
void postProcessBeanDefinitionRegistry(BeanDefinitionRegistry registry) throws BeansException
}
BeanFactoryPostProcessor <|-- BeanDefinitionRegistryPostProcessor
BeanDefinitionRegistryPostProcessor <|.. ConfigurationClassPostProcessor

class ConfigurationClassPostProcessor {
}

abstract class AbstractAutoProxyCreator {
}

class DefaultAopProxyFactory {
public AopProxy createAopProxy
}

BeanPostProcessor <|-- InstantiationAwareBeanPostProcessor
InstantiationAwareBeanPostProcessor <|.. AbstractAutoProxyCreator
AopProxyFactory <|.. DefaultAopProxyFactory
InstantiationAwareBeanPostProcessor <|.. ImportAwareBeanPostProcessor




abstract class AbstractBeanFactory {
protected <T> T doGetBean(
			String name, @Nullable Class<T> requiredType, @Nullable Object[] args, boolean typeCheckOnly)
			throws BeansException
**
Object sharedInstance = getSingleton(beanName);




}
abstract class AbstractAutowireCapableBeanFactory{
protected Object createBean
**
Object bean = resolveBeforeInstantiation(beanName, mbdToUse);
Object beanInstance = doCreateBean(beanName, mbdToUse, args);
--

protected Object doCreateBean
**
instanceWrapper = createBeanInstance(beanName, mbd, args);
populateBean(beanName, mbd, instanceWrapper);
exposedObject = initializeBean(beanName, exposedObject, mbd);
--

protected Object resolveBeforeInstantiation
**
applyBeanPostProcessorsBeforeInstantiation；

--
populateBean(beanName, mbd, instanceWrapper)
**
postProcessAfterInstantiation

--
protected Object initializeBean
**
wrappedBean = applyBeanPostProcessorsBeforeInitialization(wrappedBean, beanName);
invokeInitMethods(beanName, wrappedBean, mbd);
wrappedBean = applyBeanPostProcessorsAfterInitialization(wrappedBean, beanName);

}



class DefaultSingletonBeanRegistry {
/** Cache of singleton objects: bean name to bean instance. */
private final Map<String, Object> singletonObjects = new ConcurrentHashMap<>(256);
--
/** Cache of singleton factories: bean name to ObjectFactory. */
private final Map<String, ObjectFactory<?>> singletonFactories = new HashMap<>(16);
--
/** Cache of early singleton objects: bean name to bean instance. */
private final Map<String, Object> earlySingletonObjects = new ConcurrentHashMap<>(16);
}




AbstractBeanFactory <|-- AbstractAutowireCapableBeanFactory


@enduml
